# xmcd
#
# Track frame offsets: 
#        150
#        14650
#        47337
#        73077
#        95360
#        138197
#        156897
#
# Disc length: 2304 seconds
#
# Revision: 0
# Processed by: cddbd v1.5.1PL0 Copyright (c) Steve Scherf et al.
# Submitted via: ExactAudioCopy v0.95a5
#
DISCID=5508fe07
DTITLE=Morrison, Van - Desert Land
DYEAR=1971
DGENRE=R&B
TTITLE0=Brown-eyed Girl
TTITLE1=Moonshine whiskey
TTITLE2=Moondance
TTITLE3=Wild night
TTITLE4=Ballerina
TTITLE5=Blue money
TTITLE6=Buenosera senorita
EXTD=recorded live U.S.A., November 1971
EXTT0=
EXTT1=
EXTT2=
EXTT3=
EXTT4=
EXTT5=
EXTT6=
PLAYORDER=
